<?xml version="1.0" encoding="UTF-8" ?>
<!DOCTYPE svg PUBLIC "-//W3C//DTD SVG 1.1//EN" "http://www.w3.org/Graphics/SVG/1.1/DTD/svg11.dtd">
<svg width="360pt" height="298pt" viewBox="0 0 360 298" version="1.1" xmlns="http://www.w3.org/2000/svg">
<g id="#000000ff">
<path fill="#000000" opacity="1.00" d=" M 112.12 13.00 C 112.14 6.25 118.28 0.47 125.01 0.77 C 198.33 0.65 271.65 0.75 344.96 0.72 C 349.25 0.56 353.77 2.00 356.42 5.54 C 359.66 9.23 359.19 14.45 359.24 19.01 C 359.21 89.01 359.21 159.00 359.23 229.00 C 359.14 233.57 359.78 238.79 356.71 242.60 C 354.31 246.04 350.17 247.83 346.04 247.81 C 333.96 247.91 321.87 247.81 309.78 247.85 C 309.52 258.71 306.27 269.69 299.24 278.11 C 291.25 288.40 279.12 295.65 266.05 296.80 C 255.32 298.04 244.12 295.89 234.90 290.17 C 224.19 283.51 215.71 272.88 212.63 260.55 C 211.38 256.43 211.35 252.10 210.91 247.85 C 186.19 247.84 161.47 247.85 136.76 247.85 C 136.50 258.73 133.23 269.73 126.17 278.16 C 118.00 288.67 105.49 295.96 92.11 296.89 C 79.05 298.26 65.37 294.29 55.53 285.49 C 44.33 276.40 37.92 262.22 37.88 247.85 C 29.60 247.77 21.31 248.00 13.03 247.75 C 8.73 247.63 4.66 245.21 2.52 241.48 C -0.58 236.40 0.99 229.25 5.80 225.81 C 7.85 224.04 10.58 223.62 13.15 223.10 C 13.16 197.05 13.15 171.00 13.15 144.94 C 13.07 136.06 16.52 127.10 22.84 120.80 C 34.82 108.78 46.82 96.79 58.81 84.79 C 65.12 78.45 74.05 74.79 83.00 74.84 C 92.67 74.83 102.35 74.85 112.02 74.84 C 112.10 54.23 111.89 33.61 112.12 13.00 M 210.95 31.93 C 210.83 46.23 210.95 60.54 210.90 74.84 C 197.26 74.84 183.62 74.86 169.98 74.83 C 167.74 74.89 165.16 74.76 163.43 76.46 C 161.58 78.08 161.46 80.69 161.46 82.98 C 161.48 93.99 161.48 105.01 161.46 116.03 C 161.46 118.31 161.52 120.92 163.33 122.60 C 165.08 124.35 167.73 124.23 170.01 124.30 C 183.64 124.26 197.27 124.29 210.90 124.28 C 210.96 138.55 210.84 152.82 210.95 167.09 C 210.64 170.50 213.44 173.76 216.93 173.64 C 228.28 173.85 239.64 173.63 250.99 173.74 C 253.64 173.69 256.80 173.97 258.72 171.74 C 260.48 169.96 260.28 167.27 260.36 164.97 C 260.32 151.41 260.35 137.85 260.34 124.28 C 273.91 124.28 287.48 124.26 301.05 124.30 C 303.52 124.25 306.48 124.37 308.22 122.26 C 310.02 120.30 309.72 117.47 309.80 115.02 C 309.70 103.69 309.89 92.36 309.72 81.03 C 309.88 77.47 306.59 74.54 303.08 74.88 C 288.84 74.79 274.59 74.89 260.34 74.84 C 260.35 61.22 260.32 47.61 260.36 34.00 C 260.30 31.72 260.41 29.09 258.68 27.34 C 256.73 25.20 253.63 25.47 251.01 25.42 C 239.66 25.52 228.31 25.32 216.97 25.51 C 213.52 25.40 210.67 28.51 210.95 31.93 M 75.74 102.79 C 64.11 114.49 52.42 126.13 40.76 137.80 C 37.75 140.70 37.69 145.11 37.86 149.00 C 62.58 149.00 87.30 149.00 112.02 149.00 C 112.03 132.52 112.03 116.04 112.02 99.57 C 102.01 99.61 91.99 99.47 81.98 99.62 C 79.49 99.58 77.38 101.06 75.74 102.79 M 82.39 223.66 C 70.82 225.79 61.77 237.18 62.68 249.00 C 62.84 261.64 74.37 272.73 86.99 272.50 C 99.09 273.00 110.47 263.12 111.75 251.11 C 112.96 242.82 109.54 234.15 103.04 228.88 C 97.46 223.99 89.60 222.30 82.39 223.66 M 255.50 223.64 C 243.94 225.73 234.87 237.10 235.71 248.89 C 235.85 261.55 247.33 272.72 259.99 272.50 C 272.47 273.05 284.14 262.51 284.88 250.06 C 285.74 242.08 282.27 233.92 276.06 228.87 C 270.51 224.00 262.68 222.32 255.50 223.64 Z" />
</g>
</svg>
