<svg xmlns="http://www.w3.org/2000/svg" xmlns:xlink="http://www.w3.org/1999/xlink" preserveAspectRatio="xMidYMid" width="32.03" height="20.5" viewBox="0 0 32.03 20.5">
  <defs>
    <style>
      .cls-1 {
        fill: #000;
        fill-rule: evenodd;
      }
    </style>
  </defs>
  <path d="M21.022,1.996 L28.994,1.996 L28.994,4.032 L21.022,4.032 L21.022,1.996 ZM32.017,14.055 L21.639,14.055 C21.749,16.574 22.973,17.501 25.171,17.501 C26.758,17.501 28.040,16.994 28.290,16.098 L31.454,16.098 C30.343,19.511 28.290,20.493 25.033,20.493 C20.497,20.493 17.687,17.361 17.687,12.887 C17.687,8.551 20.665,5.251 25.033,5.251 C29.929,5.251 32.295,9.609 32.017,14.055 ZM21.639,11.099 L28.067,11.099 C27.704,9.086 26.840,8.245 24.920,8.245 C22.417,8.245 21.693,9.982 21.639,11.099 ZM16.650,14.311 C16.650,18.367 13.225,20.103 9.636,20.103 L0.008,20.103 L0.008,0.007 L9.360,0.007 C13.143,0.007 15.703,1.363 15.703,5.082 C15.703,7.042 14.730,8.410 13.002,9.251 C15.426,9.950 16.650,11.823 16.650,14.311 ZM8.093,3.387 L4.003,3.387 L4.003,8.057 L8.427,8.057 C9.956,8.057 11.098,7.358 11.098,5.682 C11.098,3.780 9.650,3.387 8.093,3.387 ZM8.760,11.049 L4.003,11.049 L4.003,16.531 L8.677,16.531 C10.402,16.531 11.904,15.973 11.904,13.902 C11.904,11.861 10.625,11.049 8.760,11.049 Z" class="cls-1"/>
</svg>
