<?xml version="1.0" encoding="UTF-8" ?>
<!DOCTYPE svg PUBLIC "-//W3C//DTD SVG 1.1//EN" "http://www.w3.org/Graphics/SVG/1.1/DTD/svg11.dtd">
<svg width="198pt" height="298pt" viewBox="0 0 198 298" version="1.1" xmlns="http://www.w3.org/2000/svg">
<g id="#000000ff">
<path fill="#000000" opacity="1.00" d=" M 41.36 17.29 C 64.67 3.02 93.32 -2.72 120.18 2.92 C 140.19 7.17 159.42 16.48 174.12 30.85 C 189.04 45.66 197.81 66.32 198.00 87.36 L 198.00 87.60 C 197.57 98.93 195.59 110.38 190.47 120.59 C 183.09 136.32 168.97 147.27 159.54 161.59 C 153.04 171.77 146.72 182.66 145.53 194.92 C 149.76 197.74 153.44 201.84 154.20 207.04 C 155.47 212.75 153.62 218.71 149.93 223.14 C 153.81 227.77 155.59 234.09 154.02 240.01 C 153.12 244.73 149.70 248.35 146.01 251.18 C 149.27 257.54 149.37 265.92 144.65 271.60 C 140.43 276.68 133.68 278.55 127.31 278.88 C 121.89 291.05 108.22 298.98 94.94 296.97 C 84.42 295.67 75.07 288.45 70.68 278.87 C 64.33 278.54 57.60 276.70 53.39 271.62 C 48.63 265.96 48.72 257.55 51.99 251.18 C 48.30 248.35 44.88 244.73 43.98 240.00 C 42.41 234.09 44.19 227.76 48.08 223.15 C 44.37 218.71 42.53 212.74 43.81 207.02 C 44.56 201.83 48.25 197.74 52.47 194.92 C 51.16 181.93 44.28 170.44 37.23 159.79 C 27.53 145.91 13.73 134.89 6.84 119.11 C 2.18 109.29 0.44 98.41 0.00 87.63 L 0.00 87.38 C 0.43 76.59 2.21 65.73 6.77 55.86 C 13.80 39.71 26.27 26.25 41.36 17.29 M 65.70 32.65 C 47.45 39.46 31.68 54.36 26.63 73.52 C 22.70 88.61 25.57 105.57 35.09 118.05 C 40.08 125.22 46.90 130.85 52.20 137.78 C 64.78 153.45 75.00 171.93 76.98 192.24 C 91.66 192.25 106.34 192.25 121.03 192.24 C 123.00 171.97 133.18 153.51 145.73 137.86 C 151.22 130.70 158.28 124.89 163.37 117.41 C 176.07 100.27 176.20 75.28 164.24 57.70 C 154.65 42.39 137.84 33.58 121.01 28.49 C 102.85 23.37 82.87 24.76 65.70 32.65 Z" />
<path fill="#000000" opacity="1.00" d=" M 95.43 57.59 C 97.55 55.84 100.45 56.49 102.96 56.60 C 113.73 57.39 124.88 60.44 132.96 67.96 C 138.74 72.88 142.70 80.29 142.12 88.02 C 141.77 92.30 136.18 94.92 132.71 92.28 C 128.76 89.80 130.54 84.45 128.21 80.96 C 124.70 75.03 117.75 72.54 111.51 70.56 C 106.97 69.02 102.14 69.02 97.44 68.40 C 92.62 67.35 91.22 60.27 95.43 57.59 Z" />
</g>
</svg>
