<?xml version="1.0" encoding="UTF-8" ?>
<!DOCTYPE svg PUBLIC "-//W3C//DTD SVG 1.1//EN" "http://www.w3.org/Graphics/SVG/1.1/DTD/svg11.dtd">
<svg width="272pt" height="298pt" viewBox="0 0 272 298" version="1.1" xmlns="http://www.w3.org/2000/svg">
<g id="#000000ff">
<path fill="#000000" opacity="1.00" d=" M 123.53 1.73 C 140.72 -0.93 159.03 1.82 173.94 11.03 C 189.97 20.95 202.73 36.67 207.59 55.03 C 210.94 67.88 210.96 81.63 207.64 94.48 C 202.66 113.44 189.32 129.69 172.52 139.52 C 158.46 147.75 141.58 150.35 125.54 148.28 C 93.67 144.41 66.29 117.02 62.54 85.12 C 60.40 68.39 63.43 50.77 72.48 36.39 C 83.71 18.48 102.39 4.83 123.53 1.73 Z" />
<path fill="#000000" opacity="1.00" d=" M 15.21 169.30 C 23.02 154.28 36.89 141.90 53.66 138.18 C 51.18 144.75 49.73 151.69 49.57 158.71 C 49.25 172.72 49.73 186.74 49.32 200.74 C 38.18 204.32 29.53 213.95 26.27 225.07 C 23.41 235.18 24.80 246.58 30.56 255.43 C 35.70 263.24 43.67 269.35 52.84 271.46 C 62.34 273.59 72.80 272.42 81.13 267.18 C 88.52 262.50 94.51 255.35 97.12 246.93 C 100.24 236.87 99.15 225.45 93.55 216.45 C 89.21 209.09 82.24 203.47 74.22 200.58 C 74.15 187.73 74.18 174.88 74.20 162.04 C 74.18 155.55 75.16 148.80 78.96 143.37 C 94.57 155.70 114.05 163.25 134.03 163.40 C 155.32 164.12 176.41 156.55 193.03 143.37 C 199.23 152.25 197.54 163.55 197.78 173.73 C 191.01 174.06 184.19 175.04 177.97 177.86 C 163.44 184.40 152.03 198.11 149.27 213.93 C 147.89 222.60 148.46 231.40 148.34 240.14 C 141.54 246.41 140.01 257.70 145.85 265.10 C 151.16 272.60 162.27 274.73 170.09 270.03 C 177.23 265.98 180.85 256.97 178.56 249.09 C 177.83 245.51 175.11 242.96 173.20 240.02 C 172.86 234.04 173.05 228.02 173.16 222.02 C 173.50 209.60 184.67 198.59 197.12 198.51 C 209.35 197.87 220.91 207.97 222.24 220.07 C 222.82 226.05 222.45 232.08 222.54 238.08 C 222.85 241.26 219.60 242.99 218.42 245.61 C 213.97 253.83 217.04 265.01 225.09 269.79 C 232.15 274.25 242.31 273.19 248.06 267.03 C 253.49 261.80 254.83 253.09 251.70 246.32 C 250.62 243.97 248.61 242.23 247.39 239.98 C 246.94 233.69 247.52 227.37 247.13 221.08 C 246.60 206.73 239.29 192.82 227.87 184.15 C 226.19 182.74 223.92 181.86 222.67 180.05 C 222.46 166.05 223.53 151.51 218.30 138.19 C 230.06 140.80 240.55 147.66 248.30 156.80 C 256.81 166.43 261.47 178.74 264.95 190.93 C 270.02 208.25 271.73 226.33 272.00 244.31 L 272.00 247.64 C 271.42 253.79 271.26 260.07 269.16 265.95 C 264.71 280.11 252.42 291.36 238.03 294.83 C 231.20 296.88 224.04 297.15 216.96 297.29 C 162.64 297.27 108.32 297.29 54.00 297.28 C 41.86 297.19 29.05 295.27 19.01 287.93 C 11.46 282.59 5.64 274.80 2.84 265.97 C 0.82 260.37 0.62 254.37 0.00 248.52 L 0.00 244.37 C 0.30 218.74 3.88 192.56 15.21 169.30 Z" />
<path fill="#000000" opacity="1.00" d=" M 57.17 224.20 C 64.21 221.00 73.11 226.26 73.92 233.86 C 75.20 241.13 68.44 248.33 61.13 247.69 C 54.41 247.42 48.71 240.78 49.71 234.08 C 50.14 229.74 53.26 225.97 57.17 224.20 Z" />
</g>
</svg>
