<svg xmlns="http://www.w3.org/2000/svg" xmlns:xlink="http://www.w3.org/1999/xlink" preserveAspectRatio="xMidYMid" width="32" height="32" viewBox="0 0 32 32">
  <defs>
    <style>
      .cls-1 {
        fill: #000;
        fill-rule: evenodd;
      }
    </style>
  </defs>
  <path d="M31.683,12.779 C31.473,11.751 31.158,10.738 30.750,9.771 C30.349,8.822 29.852,7.908 29.275,7.053 C28.702,6.206 28.045,5.409 27.322,4.687 C26.598,3.962 25.802,3.305 24.955,2.733 C24.100,2.154 23.185,1.659 22.237,1.256 C21.270,0.850 20.258,0.533 19.230,0.325 C18.176,0.108 17.092,-0.001 16.008,-0.001 C14.924,-0.001 13.840,0.108 12.785,0.325 C11.757,0.533 10.745,0.850 9.779,1.256 C8.831,1.659 7.916,2.154 7.060,2.733 C6.213,3.305 5.417,3.962 4.693,4.687 C3.970,5.409 3.313,6.206 2.741,7.053 C2.163,7.908 1.666,8.822 1.266,9.771 C0.857,10.738 0.543,11.751 0.332,12.779 C0.117,13.830 0.007,14.915 0.007,15.999 C0.007,17.085 0.117,18.169 0.332,19.222 C0.543,20.250 0.857,21.263 1.266,22.229 C1.666,23.177 2.163,24.094 2.741,24.948 C3.313,25.795 3.970,26.590 4.693,27.315 C5.417,28.038 6.213,28.694 7.060,29.267 C7.916,29.844 8.831,30.341 9.779,30.742 C10.745,31.152 11.757,31.464 12.785,31.675 C13.840,31.892 14.924,32.001 16.008,32.001 C17.092,32.001 18.176,31.892 19.230,31.675 C20.258,31.464 21.270,31.152 22.237,30.742 C23.185,30.341 24.100,29.844 24.955,29.267 C25.802,28.694 26.598,28.038 27.322,27.315 C28.045,26.590 28.702,25.795 29.275,24.948 C29.852,24.094 30.349,23.177 30.750,22.229 C31.158,21.263 31.473,20.250 31.683,19.222 C31.899,18.169 32.008,17.085 32.008,15.999 C32.008,14.915 31.899,13.830 31.683,12.779 ZM29.668,15.863 C29.470,15.820 24.846,14.825 20.151,15.416 C20.055,15.182 19.957,14.947 19.856,14.710 C19.572,14.042 19.266,13.379 18.948,12.728 C24.344,10.526 26.535,7.358 26.561,7.320 C28.477,9.647 29.637,12.620 29.668,15.863 ZM25.033,5.744 C25.000,5.798 23.053,8.760 17.895,10.693 C15.560,6.401 12.993,2.991 12.788,2.721 C13.821,2.470 14.898,2.335 16.008,2.335 C19.468,2.335 22.625,3.624 25.033,5.744 ZM12.735,2.732 C12.735,2.733 12.733,2.734 12.733,2.734 C12.733,2.734 12.717,2.738 12.692,2.743 C12.706,2.740 12.721,2.737 12.735,2.732 ZM10.178,3.641 C10.359,3.885 12.886,7.311 15.252,11.514 C8.691,13.258 2.996,13.190 2.636,13.183 C3.524,8.950 6.367,5.441 10.178,3.641 ZM2.343,15.999 C2.343,15.853 2.350,15.711 2.355,15.567 C2.596,15.573 9.348,15.725 16.383,13.621 C16.775,14.387 17.149,15.165 17.492,15.943 C17.311,15.993 17.132,16.048 16.953,16.106 C9.579,18.489 5.839,25.125 5.839,25.125 C5.839,25.125 5.843,25.129 5.844,25.131 C3.668,22.710 2.343,19.509 2.343,15.999 ZM16.008,29.665 C12.701,29.665 9.668,28.489 7.304,26.533 C7.484,26.679 7.610,26.772 7.610,26.772 C7.610,26.772 10.229,21.059 18.333,18.236 C18.363,18.225 18.393,18.216 18.424,18.207 C20.347,23.203 21.140,27.388 21.343,28.583 C19.704,29.279 17.900,29.665 16.008,29.665 ZM23.644,27.334 C23.505,26.508 22.776,22.498 20.984,17.573 C25.395,16.867 29.218,18.077 29.500,18.169 C28.891,21.977 26.712,25.261 23.644,27.334 Z" class="cls-1"/>
</svg>
