<svg xmlns="http://www.w3.org/2000/svg" xmlns:xlink="http://www.w3.org/1999/xlink" preserveAspectRatio="xMidYMid" width="15.03" height="32" viewBox="0 0 15.03 32">
  <defs>
    <style>
      .cls-1 {
        fill: #000;
        fill-rule: evenodd;
      }
    </style>
  </defs>
  <path d="M14.995,-0.001 C14.995,1.845 14.995,5.151 14.995,5.151 C14.995,5.151 11.198,4.772 10.247,6.227 C9.727,7.022 10.035,9.351 9.989,11.024 C11.647,11.024 13.368,11.024 15.026,11.024 C14.600,12.979 14.295,14.305 13.982,15.997 C12.548,15.997 9.961,15.997 9.961,15.997 L9.961,32.002 C9.961,32.002 5.215,32.002 2.984,32.002 C2.985,27.068 2.983,21.311 2.984,16.060 C1.900,16.060 1.099,16.060 0.015,16.060 C0.015,14.214 0.015,12.870 0.015,11.024 C1.067,11.024 1.899,11.024 2.951,11.024 C3.102,7.342 3.158,3.694 4.987,1.836 C7.043,-0.252 9.004,-0.001 14.995,-0.001 Z" class="cls-1"/>
</svg>
