<?xml version="1.0" encoding="UTF-8" ?>
<!DOCTYPE svg PUBLIC "-//W3C//DTD SVG 1.1//EN" "http://www.w3.org/Graphics/SVG/1.1/DTD/svg11.dtd">
<svg width="348pt" height="298pt" viewBox="0 0 348 298" version="1.1" xmlns="http://www.w3.org/2000/svg">
<g id="#000000ff">
<path fill="#000000" opacity="1.00" d=" M 81.46 1.25 C 91.00 0.56 100.78 0.25 110.07 2.92 C 117.22 4.43 124.02 7.21 130.62 10.29 C 146.56 18.78 161.10 29.81 174.00 42.43 C 186.88 29.82 201.41 18.80 217.34 10.31 C 228.79 4.87 241.24 0.89 254.01 0.77 C 271.04 0.73 288.46 3.38 303.72 11.27 C 319.40 19.24 332.21 32.76 339.11 48.96 C 345.95 64.97 347.95 82.80 346.45 100.07 C 344.57 117.36 337.30 133.65 327.70 148.00 C 318.79 161.34 307.91 173.24 296.29 184.25 C 259.77 219.42 223.24 254.57 186.74 289.75 C 183.22 293.15 179.42 297.36 174.06 297.14 C 168.39 297.42 164.49 292.83 160.78 289.27 C 123.27 253.05 85.73 216.87 48.21 180.66 C 35.77 169.29 25.11 155.98 16.25 141.65 C 8.21 127.37 2.08 111.56 1.12 95.07 C 0.56 78.13 3.00 60.75 10.52 45.41 C 17.59 30.99 29.41 19.01 43.64 11.60 C 55.31 5.46 68.38 2.36 81.46 1.25 M 45.71 39.74 C 32.07 50.43 26.87 68.42 25.88 85.07 C 24.64 100.42 29.33 115.70 37.22 128.76 C 49.99 150.61 69.78 166.86 87.55 184.43 C 116.37 212.20 145.18 239.98 174.00 267.74 C 205.87 237.05 237.72 206.34 269.58 175.64 C 280.08 165.43 291.03 155.60 300.13 144.07 C 311.57 129.68 321.19 112.68 322.15 93.93 C 322.82 77.68 319.54 60.58 309.81 47.23 C 299.86 34.92 284.32 28.26 268.89 26.33 C 260.04 25.37 250.91 24.76 242.24 27.21 C 235.07 29.01 228.52 32.53 222.02 35.96 C 209.23 43.80 197.63 53.54 187.39 64.48 C 184.30 67.43 181.65 71.43 177.21 72.35 C 172.38 73.60 167.11 71.85 163.98 67.96 C 153.03 56.13 140.95 45.24 127.22 36.71 C 116.48 30.54 104.66 25.09 91.99 25.50 C 75.65 25.44 58.67 29.36 45.71 39.74 Z" />
</g>
</svg>
