<?xml version="1.0" encoding="UTF-8" ?>
<!DOCTYPE svg PUBLIC "-//W3C//DTD SVG 1.1//EN" "http://www.w3.org/Graphics/SVG/1.1/DTD/svg11.dtd">
<svg width="316pt" height="316pt" viewBox="0 0 316 316" version="1.1" xmlns="http://www.w3.org/2000/svg">
<g id="#000000ff">
<path fill="#000000" opacity="1.00" d=" M 241.06 8.86 C 263.08 2.47 286.15 0.85 308.98 0.51 C 312.14 0.39 315.33 2.84 315.56 6.09 C 315.52 29.10 313.37 52.32 306.54 74.40 C 301.02 92.89 291.93 110.19 280.67 125.80 C 276.46 131.20 272.33 136.66 268.06 142.00 C 263.17 147.47 258.13 152.81 253.18 158.22 C 240.82 170.51 227.67 181.96 214.49 193.36 C 213.24 217.26 211.96 241.15 210.71 265.05 C 210.72 268.07 209.00 270.86 206.32 272.24 C 182.53 286.13 158.71 299.98 134.93 313.89 C 132.46 315.42 129.09 316.27 126.61 314.29 C 122.96 311.34 119.93 307.69 116.48 304.50 C 113.86 302.08 110.70 298.87 112.12 294.94 C 117.38 277.25 122.96 259.66 128.34 242.01 C 110.26 223.91 92.18 205.82 74.07 187.76 C 56.63 193.12 39.19 198.50 21.75 203.85 C 18.78 205.00 15.48 203.89 13.49 201.51 C 9.73 197.65 5.79 193.96 2.12 190.02 C 0.08 188.01 -0.17 184.77 1.47 182.44 C 15.55 158.19 29.71 133.99 43.83 109.77 C 45.20 107.10 47.98 105.38 50.99 105.39 C 74.90 104.14 98.81 102.87 122.72 101.63 C 134.28 88.24 145.88 74.87 158.43 62.40 C 166.30 55.26 173.73 47.62 182.29 41.30 C 199.59 26.93 219.33 15.07 241.06 8.86 M 248.37 44.54 C 240.23 46.94 234.44 55.43 235.47 63.92 C 236.00 73.61 245.38 81.60 255.03 80.69 C 265.32 80.42 273.85 70.17 272.24 59.97 C 271.32 48.85 258.90 40.90 248.37 44.54 Z" />
</g>
</svg>
