<?xml version="1.0" encoding="UTF-8" ?>
<!DOCTYPE svg PUBLIC "-//W3C//DTD SVG 1.1//EN" "http://www.w3.org/Graphics/SVG/1.1/DTD/svg11.dtd">
<svg width="318pt" height="318pt" viewBox="0 0 318 318" version="1.1" xmlns="http://www.w3.org/2000/svg">
<g id="#000000ff">
<path fill="#000000" opacity="1.00" d=" M 186.70 12.70 C 208.65 -1.05 236.88 -2.91 261.06 5.68 C 266.73 7.55 272.50 9.88 276.96 13.95 C 279.91 16.92 278.33 22.03 274.78 23.73 C 256.22 34.56 237.56 45.22 218.97 56.01 C 218.97 70.41 218.99 84.82 218.96 99.22 C 231.43 106.13 243.84 113.13 256.39 119.90 C 272.16 110.05 288.07 100.39 304.26 91.25 C 307.45 89.75 311.34 86.61 314.81 89.16 C 318.54 91.87 317.21 96.94 316.74 100.79 C 313.97 116.01 307.59 130.74 297.42 142.49 C 283.59 158.52 264.00 169.85 242.90 172.58 C 223.89 175.02 203.90 171.57 187.45 161.53 C 173.85 153.20 162.39 141.33 154.71 127.34 C 144.98 109.38 142.69 87.91 146.80 68.04 C 151.52 45.02 166.99 25.06 186.70 12.70 Z" />
<path fill="#000000" opacity="1.00" d=" M 7.82 254.78 C 51.61 210.85 95.54 167.07 139.40 123.20 C 149.44 148.24 169.95 168.74 194.99 178.78 C 153.14 220.66 111.26 262.52 69.39 304.39 C 65.15 308.51 61.23 313.32 55.63 315.65 C 46.59 319.48 35.45 317.42 28.46 310.50 C 21.13 303.19 13.88 295.80 6.72 288.34 C -1.98 279.24 -1.19 263.40 7.82 254.78 M 53.49 248.63 C 49.16 250.62 45.90 255.11 46.09 259.99 C 45.98 266.69 52.34 272.65 59.03 272.08 C 65.83 271.77 71.59 264.90 70.37 258.12 C 69.43 250.53 60.51 245.33 53.49 248.63 Z" />
</g>
</svg>
